# xmcd
# 
# Track frame offsets:
#     150
#     46562
#     97470
#     144522
#     204985
#     289057
# 
# Disc length: 4667
# 
# Revision: 1
# Processed by: cddbd v1.5.2PL0 Copyright (c) Steve Scherf et al.
# Submitted via: fre:ac v1.1beta1pre5
# 
DISCID=54123906
DTITLE=Richie Beirach and Gregor Huebner - Live at Birdland New York
DYEAR=2017
DGENRE=Jazz
TTITLE0=You don't know what love is
TTITLE1=Around Bartok Bagatelle #4
TTITLE2=Siciliana
TTITLE3=African Heartbeat
TTITLE4=Elm
TTITLE5=Transition
EXTD=YEAR: 2017
EXTT0=
EXTT1=
EXTT2=
EXTT3=
EXTT4=
EXTT5=
PLAYORDER=
